#!OML:ASF C:\ViconDB\ViconDB\414\Spring2016\041811\Spring2016.ASF
:FULLY-SPECIFIED
:DEGREES
170
root 7.41233 16.167 -11.2359 -177.16 0.00595971 180.079
lowerback 33.4695 -0.387873 -1.27756
upperback 4.93728 0.590922 -0.578284
thorax -11.6725 0.976127 -0.303574
lowerneck -12.5429 -5.72704 -14.6806
upperneck 4.48332 -7.56537 20.401
head 4.84357 -3.22008 8.31522
rclavicle 5.96354e-015 -1.86858e-014
rhumerus -43.5556 -1.21424 -86.641
rradius 62.7943
rwrist 6.99213
rhand -37.7643 -18.3368
rfingers 7.12502
rthumb -10.8119 -48.0386
lclavicle 5.96354e-015 -1.86858e-014
lhumerus -40.0378 -4.05718 79.361
lradius 51.1122
lwrist -6.01689
lhand -35.0001 18.58
lfingers 7.12502
lthumb -8.1449 48.403
rfemur -46.8779 -16.1971 22.5935
rtibia 67.9804
rfoot -10.3361 -9.64722
rtoes -7.99064
lfemur -49.2209 14.5202 -13.1364
ltibia 60.6797
lfoot -12.0607 -7.969
ltoes -9.61807
171
root 7.39811 15.8536 -11.4141 -177.161 -0.219108 180.229
lowerback 33.8806 1.27526 0.0363347
upperback 4.98634 -0.0383885 -0.330201
thorax -11.7889 -0.696158 -0.217028
lowerneck -12.3966 -5.64707 -14.6629
upperneck 3.73039 -7.38575 20.4331
head 4.56402 -3.16408 8.33557
rclavicle 1.68967e-015 9.93923e-016
rhumerus -43.8444 -1.99307 -86.7794
rradius 60.1621
rwrist 6.49544
rhand -37.7849 -19.3229
rfingers 7.12502
rthumb -10.8317 -49.0236
lclavicle 1.68967e-015 9.93923e-016
lhumerus -40.1256 -2.26991 79.6508
lradius 48.7989
lwrist -6.25149
lhand -33.9035 19.3669
lfingers 7.12502
lthumb -7.08645 49.2283
rfemur -48.8772 -16.8807 22.5821
rtibia 72.2215
rfoot -9.67716 -10.8135
rtoes -6.31786
lfemur -52.0195 14.906 -13.0531
ltibia 65.5542
lfoot -13.8106 -8.22581
ltoes -9.7941
172
root 7.38479 15.5741 -11.6106 -176.651 -0.564582 180.398
lowerback 33.6122 1.07243 0.284813
upperback 5.01723 -0.184278 -0.282469
thorax -11.6473 -0.763503 -0.244668
lowerneck -12.3327 -5.58666 -14.4133
upperneck 2.905 -7.24892 20.3492
head 4.27161 -3.13166 8.26893
rclavicle -6.26172e-015 -8.34896e-015
rhumerus -44.0118 -2.97899 -86.9906
rradius 57.6578
rwrist 5.69806
rhand -38.0687 -20.1841
rfingers 7.12502
rthumb -11.1056 -49.8703
lclavicle -6.26172e-015 -8.34896e-015
lhumerus -39.9899 -0.633531 79.8318
lradius 46.4083
lwrist -5.68117
lhand -33.3956 18.9778
lfingers 7.12502
lthumb -6.59612 48.8551
rfemur -50.8442 -17.3113 22.6893
rtibia 75.7892
rfoot -8.39223 -12.1848
rtoes -5.56294
lfemur -54.8132 15.1557 -12.9672
ltibia 69.8514
lfoot -15.6388 -8.61065
ltoes -9.97592
173
root 7.38382 15.306 -11.8221 -176.258 -0.85375 180.662
lowerback 33.2914 1.008 0.413775
upperback 5.14854 -0.205018 -0.11544
thorax -11.3703 -0.778166 -0.130647
lowerneck -12.4017 -5.58682 -14.6181
upperneck 2.15705 -7.16455 20.6344
head 4.07174 -3.11405 8.40539
rclavicle 7.95139e-016 -1.59028e-015
rhumerus -44.0885 -4.16773 -87.0725
rradius 55.4696
rwrist 4.64418
rhand -38.3925 -20.6647
rfingers 7.12502
rthumb -11.4178 -50.3338
lclavicle 7.95139e-016 -1.59028e-015
lhumerus -39.5941 0.781428 80.108
lradius 44.0522
lwrist -5.61389
lhand -33.0883 18.992
lfingers 7.12502
lthumb -6.29947 48.8783
rfemur -52.2593 -17.5983 22.8887
rtibia 78.855
rfoot -6.77927 -13.493
rtoes -5.59403
lfemur -56.774 15.3512 -12.5933
ltibia 73.4315
lfoot -17.5985 -9.15459
ltoes -10.6716
174
root 7.38996 15.0824 -12.0298 -176.064 -1.05134 180.707
lowerback 33.2377 1.07705 0.401068
upperback 5.28829 -0.136539 -0.0218946
thorax -11.1909 -0.756535 -0.0508083
lowerneck -12.4453 -5.6368 -14.8331
upperneck 1.38643 -7.13676 20.8565
head 3.86902 -3.12759 8.51731
rclavicle -5.86415e-015 -3.08116e-015
rhumerus -44.1539 -5.86595 -86.9649
rradius 53.4273
rwrist 4.56918
rhand -38.7312 -21.5067
rfingers 7.12502
rthumb -11.7445 -51.1574
lclavicle -5.86415e-015 -3.08116e-015
lhumerus -38.8254 2.2133 80.2591
lradius 41.4886
lwrist -6.17008
lhand -32.8969 18.8492
lfingers 7.12502
lthumb -6.11466 48.7409
rfemur -53.1352 -17.9545 22.8159
rtibia 81.487
rfoot -5.04391 -14.7477
rtoes -5.8933
lfemur -58.0609 15.5538 -12.3445
ltibia 76.4203
lfoot -19.5011 -9.7339
ltoes -11.182
175
root 7.39757 14.8769 -12.2262 -175.893 -1.17011 180.743
lowerback 33.4397 1.16536 0.359645
upperback 5.2833 -0.0388087 0.038031
thorax -11.2762 -0.713669 -0.000631079
lowerneck -12.7256 -5.70405 -14.9803
upperneck 1.07978 -7.15219 20.9334
head 3.83919 -3.13497 8.56298
rclavicle -2.28602e-015 -1.09332e-015
rhumerus -44.2994 -7.74656 -86.7732
rradius 51.519
rwrist 5.32319
rhand -38.7056 -21.3961
rfingers 7.12502
rthumb -11.7198 -51.0482
lclavicle -2.28602e-015 -1.09332e-015
lhumerus -38.1476 3.48664 80.3767
lradius 39.4467
lwrist -6.8062
lhand -32.6863 19.0426
lfingers 7.12502
lthumb -5.91137 48.9402
rfemur -53.8388 -18.24 22.7341
rtibia 83.7244
rfoot -3.59548 -15.8218
rtoes -5.8511
lfemur -59.1675 15.9738 -12.1638
ltibia 79.0284
lfoot -21.0571 -10.2442
ltoes -11.5076
176
root 7.40836 14.6979 -12.4139 -175.713 -1.18806 180.702
lowerback 33.7705 1.33594 0.101038
upperback 5.22781 0.0896434 0.103242
thorax -11.4714 -0.648588 0.16025
lowerneck -12.876 -5.79748 -14.7093
upperneck 0.610078 -7.2233 20.6007
head 3.71145 -3.18825 8.38828
rclavicle 4.47266e-016 2.08724e-015
rhumerus -44.261 -9.53313 -86.5886
rradius 49.8331
rwrist 6.17793
rhand -39.3627 -21.5685
rfingers 7.12502
rthumb -12.3534 -51.1835
lclavicle 4.47266e-016 2.08724e-015
lhumerus -37.416 4.63738 80.4821
lradius 37.9465
lwrist -7.27437
lhand -32.6403 19.2877
lfingers 7.12502
lthumb -5.86691 49.1865
rfemur -54.3886 -18.4188 22.5712
rtibia 85.7348
rfoot -2.44443 -16.8138
rtoes -5.73792
lfemur -60.0792 16.4856 -12.0659
ltibia 81.3059
lfoot -22.5052 -10.6503
ltoes -12.3786
177
root 7.41545 14.5379 -12.5951 -175.474 -1.23183 180.761
lowerback 34.0256 1.44448 -0.00129046
upperback 5.16333 0.20396 0.18705
thorax -11.6459 -0.591728 0.26117
lowerneck -13.0972 -5.85075 -14.8934
upperneck 0.153926 -7.2335 20.8407
head 3.63767 -3.20387 8.49744
rclavicle -1.14301e-015 1.68967e-015
rhumerus -44.0379 -10.6438 -86.5778
rradius 48.3794
rwrist 7.40914
rhand -39.7506 -21.8256
rfingers 7.12502
rthumb -12.7274 -51.4177
lclavicle -1.14301e-015 1.68967e-015
lhumerus -36.574 5.32173 80.7564
lradius 36.8626
lwrist -7.58555
lhand -32.7645 19.6887
lfingers 7.12502
lthumb -5.98682 49.5841
rfemur -54.8613 -18.6787 22.5256
rtibia 87.4598
rfoot -1.59732 -17.7299
rtoes -5.30258
lfemur -60.8683 16.8663 -11.7745
ltibia 83.3684
lfoot -23.8933 -11.1394
ltoes -12.6435
178
root 7.41716 14.3992 -12.7742 -175.085 -1.32118 180.889
lowerback 34.1362 1.43816 0.117269
upperback 5.05213 0.261468 0.168046
thorax -11.8134 -0.559683 0.15399
lowerneck -13.2591 -5.87078 -14.878
upperneck -0.377312 -7.21754 20.9284
head 3.51127 -3.217 8.5227
rclavicle -7.85199e-015 -3.57812e-015
rhumerus -43.4894 -11.291 -86.8376
rradius 47.176
rwrist 7.70587
rhand -39.8397 -21.7041
rfingers 7.12502
rthumb -12.8132 -51.2908
lclavicle -7.85199e-015 -3.57812e-015
lhumerus -35.6907 5.24394 81.0669
lradius 36.3684
lwrist -7.4784
lhand -32.9194 20.3363
lfingers 7.12502
lthumb -6.13638 50.2275
rfemur -55.3298 -18.9561 22.5974
rtibia 88.9147
rfoot -0.699976 -18.572
rtoes -5.00684
lfemur -61.6355 17.1166 -11.4489
ltibia 85.1649
lfoot -25.2026 -11.5302
ltoes -12.9548
179
root 7.41511 14.2931 -12.9628 -174.561 -1.40028 180.986
lowerback 33.9391 1.41662 0.177382
upperback 4.97844 0.292566 0.17031
thorax -11.8186 -0.532999 0.109061
lowerneck -13.5125 -5.9154 -15.0442
upperneck -0.805166 -7.22205 21.1608
head 3.44925 -3.23042 8.62723
rclavicle -2.48481e-015 -5.66536e-015
rhumerus -42.6908 -11.1996 -87.3084
rradius 46.3552
rwrist 8.41284
rhand -40.23 -21.8376
rfingers 7.12502
rthumb -13.1895 -51.4004
lclavicle -2.48481e-015 -5.66536e-015
lhumerus -34.5574 4.8829 81.5178
lradius 36.2242
lwrist -6.89516
lhand -33.3565 21.0295
lfingers 7.12502
lthumb -6.55842 50.9079
rfemur -55.6575 -19.1447 22.6147
rtibia 90.0142
rfoot 0.211324 -19.3226
rtoes -4.77264
lfemur -62.2957 17.3391 -11.2679
ltibia 86.6491
lfoot -26.54 -11.6572
ltoes -13.5564
180
root 7.42312 14.2222 -13.1392 -174.069 -1.70735 180.795
lowerback 33.8518 1.3541 0.0204923
upperback 4.89595 0.18161 0.114016
thorax -11.8795 -0.564153 0.174863
lowerneck -13.6785 -5.91046 -15.0832
upperneck -1.27528 -7.17482 21.2816
head 3.3396 -3.2269 8.67802
rclavicle 9.93923e-017 1.88845e-015
rhumerus -41.6628 -10.0011 -88.056
rradius 46.3968
rwrist 7.58087
rhand -40.422 -21.5333
rfingers 7.12502
rthumb -13.3746 -51.084
lclavicle 9.93923e-017 1.88845e-015
lhumerus -33.4541 3.68891 82.0169
lradius 36.8881
lwrist -5.47554
lhand -33.5644 21.4838
lfingers 7.12502
lthumb -6.75907 51.356
rfemur -55.8334 -19.5194 22.4135
rtibia 90.857
rfoot 0.960132 -19.8831
rtoes -4.58234
lfemur -62.7382 17.1887 -11.4127
ltibia 87.7355
lfoot -27.6954 -11.4965
ltoes -14.093
181
root 7.44241 14.1696 -13.3212 -173.586 -2.15245 181.16
lowerback 33.6088 1.22721 0.342339
upperback 4.86733 0.178614 0.203256
thorax -11.8122 -0.563741 0.0958234
lowerneck -13.8482 -6.00862 -15.0567
upperneck -1.72832 -7.27292 21.3387
head 3.25648 -3.29504 8.67973
rclavicle -1.39149e-015 -3.37934e-015
rhumerus -40.4757 -9.03995 -88.716
rradius 47.0389
rwrist 6.9249
rhand -40.409 -21.3822
rfingers 7.12502
rthumb -13.362 -50.9337
lclavicle -1.39149e-015 -3.37934e-015
lhumerus -31.9974 2.69802 82.192
lradius 37.724
lwrist -4.79185
lhand -33.3421 21.4129
lfingers 7.12502
lthumb -6.54445 51.2918
rfemur -55.7698 -19.6289 22.8658
rtibia 91.398
rfoot 1.93089 -20.1551
rtoes -4.34064
lfemur -63.0417 17.1617 -10.8546
ltibia 88.5795
lfoot -28.6495 -11.6823
ltoes -14.4784
182
root 7.47005 14.1473 -13.4899 -173.323 -2.7437 180.883
lowerback 33.746 1.1775 -0.0337317
upperback 4.7625 0.0119698 0.252886
thorax -11.9894 -0.613795 0.416703
lowerneck -13.7409 -6.01782 -15.2076
upperneck -2.26709 -7.24946 21.5366
head 3.09606 -3.3161 8.77955
rclavicle 2.03754e-015 6.95746e-016
rhumerus -39.1933 -7.33022 -89.2684
rradius 47.8031
rwrist 6.73851
rhand -40.7902 -20.9035
rfingers 7.12502
rthumb -13.7294 -50.4306
lclavicle 2.03754e-015 6.95746e-016
lhumerus -30.4424 2.3468 82.1559
lradius 38.623
lwrist -5.00168
lhand -33.0593 20.6294
lfingers 7.12502
lthumb -6.27147 50.5166
rfemur -55.301 -20.0378 22.5908
rtibia 91.7119
rfoot 2.88024 -20.3747
rtoes -4.29461
lfemur -62.8288 16.4413 -10.8475
ltibia 89.0329
lfoot -29.6189 -11.3197
ltoes -15.1766
183
root 7.47209 14.1376 -13.6822 -172.863 -3.03988 181.086
lowerback 33.312 1.10949 0.134973
upperback 4.7148 0.0426467 0.337888
thorax -11.8692 -0.587326 0.399631
lowerneck -13.6344 -6.04914 -15.3282
upperneck -2.78287 -7.26417 21.7375
head 2.94928 -3.35581 8.87159
rclavicle -1.68967e-015 7.65321e-015
rhumerus -37.7236 -5.88116 -89.4052
rradius 49.2698
rwrist 6.72449
rhand -40.4933 -20.4319
rfingers 7.12502
rthumb -13.4433 -49.9781
lclavicle -1.68967e-015 7.65321e-015
lhumerus -28.7111 1.38051 82.0904
lradius 39.9162
lwrist -4.59873
lhand -33.1422 19.764
lfingers 7.12502
lthumb -6.35152 49.6488
rfemur -54.8779 -20.118 22.8215
rtibia 91.7418
rfoot 3.60029 -20.5169
rtoes -4.12798
lfemur -62.6844 16.1231 -10.4879
ltibia 89.3773
lfoot -30.6696 -10.8804
ltoes -16.0097
